# Noesis .obj export.
#
mtllib unused.mtl
g
v  -0.000006 0.446384 -0.255727
v  -0.000006 0.594826 -0.174997
v  0.087501 0.594826 -0.151552
v  -0.000006 0.674603 -0.087501
v  0.043748 0.674603 -0.075778
v  -0.000006 0.705831 0.000006
v  0.075778 0.674603 -0.043748
v  0.087501 0.674603 0.000006
v  0.151552 0.594826 -0.087501
v  0.174997 0.594826 0.000006
v  0.221459 0.446384 -0.127861
v  0.255727 0.446384 0.000006
v  0.255727 0.268951 -0.147644
v  0.295284 0.268951 0.000006
v  0.234316 0.131407 -0.135279
v  0.270565 0.131407 0.000006
v  0.151552 0.030722 -0.087501
v  0.174997 0.030722 0.000006
v  -0.000006 0.004248 0.000006
v  0.151552 0.030722 0.087502
v  0.087501 0.030722 0.151552
v  0.135279 0.131407 0.234316
v  -0.000006 0.131407 0.270565
v  -0.000006 0.268951 0.295284
v  -0.147645 0.268951 0.255727
v  -0.127861 0.446384 0.221459
v  -0.221459 0.446384 0.127861
v  -0.151552 0.594826 0.087502
v  -0.175008 0.594826 0.000006
v  -0.087502 0.674603 0.000006
v  -0.075779 0.674603 -0.043748
v  -0.043748 0.674603 -0.075778
v  -0.087502 0.594826 -0.151552
v  -0.127861 0.446384 -0.221459
v  -0.147645 0.268951 -0.255727
v  -0.000006 0.268951 -0.295284
v  -0.135280 0.131407 -0.234316
v  -0.000006 0.131407 -0.270565
v  -0.087502 0.030722 -0.151552
v  -0.000006 0.030722 -0.174997
v  0.087501 0.030722 -0.151552
v  -0.127861 0.446384 -0.221459
v  -0.147645 0.268951 -0.255727
v  -0.255727 0.268951 -0.147644
v  -0.234316 0.131407 -0.135279
v  -0.270565 0.131407 0.000006
v  -0.175008 0.030722 0.000006
v  -0.151552 0.030722 0.087502
v  -0.000006 0.004248 0.000006
v  -0.087502 0.030722 0.151552
v  -0.000006 0.030722 0.175008
v  -0.135280 0.131407 0.234316
v  -0.000006 0.131407 0.270565
v  -0.147645 0.268951 0.255727
v  0.151552 0.030722 0.087502
v  0.174997 0.030722 0.000006
v  0.234316 0.131407 0.135280
v  0.270565 0.131407 0.000006
v  0.255727 0.268951 0.147645
v  0.295284 0.268951 0.000006
v  0.221459 0.446384 0.127861
v  0.255727 0.446384 0.000006
v  0.151552 0.594826 0.087502
v  0.174997 0.594826 0.000006
v  0.075778 0.674603 0.043748
v  0.087501 0.674603 0.000006
v  -0.000006 0.705831 0.000006
v  -0.000006 0.705831 0.000006
v  -0.087502 0.674603 0.000006
v  -0.075779 0.674603 0.043748
v  -0.151552 0.594826 0.087502
v  -0.087502 0.594826 0.151552
v  -0.127861 0.446384 0.221459
v  -0.000006 0.446384 0.255727
v  -0.000006 0.268951 0.295284
v  0.147644 0.268951 0.255727
v  0.135279 0.131407 0.234316
v  0.234316 0.131407 0.135280
v  0.151552 0.030722 0.087502
v  0.043748 0.674603 -0.075778
v  0.075778 0.674603 -0.043748
v  0.087501 0.594826 -0.151552
v  0.151552 0.594826 -0.087501
v  0.127861 0.446384 -0.221459
v  0.221459 0.446384 -0.127861
v  0.147644 0.268951 -0.255727
v  0.255727 0.268951 -0.147644
v  0.135279 0.131407 -0.234316
v  0.234316 0.131407 -0.135279
v  0.087501 0.030722 -0.151552
v  0.075778 0.674603 0.043748
v  -0.000006 0.705831 0.000006
v  0.043748 0.674603 0.075779
v  0.151552 0.594826 0.087502
v  0.087501 0.594826 0.151552
v  0.221459 0.446384 0.127861
v  0.127861 0.446384 0.221459
v  0.255727 0.268951 0.147645
v  0.147644 0.268951 0.255727
v  0.234316 0.131407 0.135280
v  -0.087502 0.030722 0.151552
v  -0.135280 0.131407 0.234316
v  -0.234316 0.131407 0.135280
v  -0.255727 0.268951 0.147645
v  -0.295284 0.268951 0.000006
v  -0.255727 0.446384 0.000006
v  -0.221459 0.446384 -0.127861
v  -0.151552 0.594826 -0.087501
v  -0.087502 0.594826 -0.151552
v  -0.043748 0.674603 -0.075778
v  0.087501 0.030722 -0.151552
v  -0.000006 0.030722 -0.174997
v  0.135279 0.131407 -0.234316
v  -0.000006 0.131407 -0.270565
v  0.147644 0.268951 -0.255727
v  -0.000006 0.268951 -0.295284
v  0.127861 0.446384 -0.221459
v  -0.000006 0.446384 -0.255727
v  0.087501 0.594826 -0.151552
v  -0.087502 0.594826 -0.151552
v  -0.127861 0.446384 -0.221459
v  -0.221459 0.446384 -0.127861
v  -0.255727 0.268951 -0.147644
v  -0.295284 0.268951 0.000006
v  -0.270565 0.131407 0.000006
v  -0.234316 0.131407 0.135280
v  -0.151552 0.030722 0.087502
v  -0.087502 0.030722 0.151552
v  -0.135280 0.131407 0.234316
v  -0.147645 0.268951 0.255727
v  -0.255727 0.268951 0.147645
v  -0.221459 0.446384 0.127861
v  -0.255727 0.446384 0.000006
v  -0.175008 0.594826 0.000006
v  -0.151552 0.594826 -0.087501
v  -0.075779 0.674603 -0.043748
v  -0.043748 0.674603 -0.075778
v  0.043748 0.674603 0.075779
v  -0.000006 0.705831 0.000006
v  -0.000006 0.674603 0.087502
v  0.087501 0.594826 0.151552
v  -0.000006 0.594826 0.175008
v  0.127861 0.446384 0.221459
v  -0.000006 0.446384 0.255727
v  0.147644 0.268951 0.255727
v  -0.087502 0.594826 0.151552
v  -0.000006 0.446384 0.255727
v  -0.000006 0.594826 0.175008
v  -0.043748 0.674603 0.075779
v  -0.000006 0.674603 0.087502
v  -0.000006 0.705831 0.000006
v  -0.147645 0.268951 -0.255727
v  -0.135280 0.131407 -0.234316
v  -0.234316 0.131407 -0.135279
v  -0.151552 0.030722 -0.087501
v  -0.175008 0.030722 0.000006
v  -0.000006 0.004248 0.000006
v  -0.000006 0.004248 0.000006
v  -0.151552 0.030722 -0.087501
v  -0.087502 0.030722 -0.151552
v  -0.135280 0.131407 -0.234316
v  0.087501 0.030722 0.151552
v  -0.000006 0.030722 0.175008
v  -0.000006 0.131407 0.270565
v  -0.000006 0.705831 0.000006
v  -0.075779 0.674603 0.043748
v  -0.043748 0.674603 0.075779
v  -0.087502 0.594826 0.151552

vt  0.503925 -0.380221 0.000000
vt  0.503925 -0.157586 0.000000
vt  0.649447 -0.157586 0.000000
vt  0.503925 -0.046268 0.000000
vt  0.574720 -0.046268 0.000000
vt  0.503925 -0.007882 0.000000
vt  0.629782 -0.046268 0.000000
vt  0.649447 -0.046268 0.000000
vt  0.759571 -0.157586 0.000000
vt  0.798901 -0.157586 0.000000
vt  0.877561 -0.380221 0.000000
vt  0.936556 -0.380221 0.000000
vt  0.936556 -0.610535 0.000000
vt  1.003418 -0.610535 0.000000
vt  0.901159 -0.810139 0.000000
vt  0.960155 -0.810139 0.000000
vt  0.759571 -0.952166 0.000000
vt  0.798901 -0.952166 0.000000
vt  0.503925 -0.986713 0.000000
vt  0.759571 -0.952166 0.000000
vt  0.649447 -0.952166 0.000000
vt  0.732040 -0.810139 0.000000
vt  0.503925 -0.810139 0.000000
vt  0.503925 -0.610535 0.000000
vt  0.252213 -0.610535 0.000000
vt  0.283677 -0.380221 0.000000
vt  0.126356 -0.380221 0.000000
vt  0.244347 -0.157586 0.000000
vt  0.205017 -0.157586 0.000000
vt  0.354471 -0.046268 0.000000
vt  0.374136 -0.046268 0.000000
vt  0.429198 -0.046268 0.000000
vt  0.354471 -0.157586 0.000000
vt  0.283677 -0.380221 0.000000
vt  0.252213 -0.610535 0.000000
vt  0.503925 -0.610535 0.000000
vt  0.271878 -0.810139 0.000000
vt  0.503925 -0.810139 0.000000
vt  0.354471 -0.952166 0.000000
vt  0.503925 -0.952166 0.000000
vt  0.649447 -0.952166 0.000000
vt  0.283677 -0.380221 0.000000
vt  0.252213 -0.610535 0.000000
vt  0.067361 -0.610535 0.000000
vt  0.102758 -0.810139 0.000000
vt  0.043763 -0.810139 0.000000
vt  0.205017 -0.952166 0.000000
vt  0.244347 -0.952166 0.000000
vt  0.503925 -0.986713 0.000000
vt  0.354471 -0.952166 0.000000
vt  0.503925 -0.952166 0.000000
vt  0.271878 -0.810139 0.000000
vt  0.503925 -0.810139 0.000000
vt  0.252213 -0.610535 0.000000
vt  0.759571 -0.952166 0.000000
vt  0.798901 -0.952166 0.000000
vt  0.901159 -0.810139 0.000000
vt  0.960155 -0.810139 0.000000
vt  0.936556 -0.610535 0.000000
vt  1.003418 -0.610535 0.000000
vt  0.877561 -0.380221 0.000000
vt  0.936556 -0.380221 0.000000
vt  0.759571 -0.157586 0.000000
vt  0.798901 -0.157586 0.000000
vt  0.629782 -0.046268 0.000000
vt  0.649447 -0.046268 0.000000
vt  0.503925 -0.007882 0.000000
vt  0.503925 -0.007882 0.000000
vt  0.354471 -0.046268 0.000000
vt  0.374136 -0.046268 0.000000
vt  0.244347 -0.157586 0.000000
vt  0.354471 -0.157586 0.000000
vt  0.283677 -0.380221 0.000000
vt  0.503925 -0.380221 0.000000
vt  0.503925 -0.610535 0.000000
vt  0.751705 -0.610535 0.000000
vt  0.732040 -0.810139 0.000000
vt  0.901159 -0.810139 0.000000
vt  0.759571 -0.952166 0.000000
vt  0.574720 -0.046268 0.000000
vt  0.629782 -0.046268 0.000000
vt  0.649447 -0.157586 0.000000
vt  0.759571 -0.157586 0.000000
vt  0.720241 -0.380221 0.000000
vt  0.877561 -0.380221 0.000000
vt  0.751705 -0.610535 0.000000
vt  0.936556 -0.610535 0.000000
vt  0.732040 -0.810139 0.000000
vt  0.901159 -0.810139 0.000000
vt  0.649447 -0.952166 0.000000
vt  0.629782 -0.046268 0.000000
vt  0.503925 -0.007882 0.000000
vt  0.574720 -0.046268 0.000000
vt  0.759571 -0.157586 0.000000
vt  0.649447 -0.157586 0.000000
vt  0.877561 -0.380221 0.000000
vt  0.720241 -0.380221 0.000000
vt  0.936556 -0.610535 0.000000
vt  0.751705 -0.610535 0.000000
vt  0.901159 -0.810139 0.000000
vt  0.354471 -0.952166 0.000000
vt  0.271878 -0.810139 0.000000
vt  0.102758 -0.810139 0.000000
vt  0.067361 -0.610535 0.000000
vt  0.000500 -0.610535 0.000000
vt  0.067361 -0.380221 0.000000
vt  0.126356 -0.380221 0.000000
vt  0.244347 -0.157586 0.000000
vt  0.354471 -0.157586 0.000000
vt  0.429198 -0.046268 0.000000
vt  0.649447 -0.952166 0.000000
vt  0.503925 -0.952166 0.000000
vt  0.732040 -0.810139 0.000000
vt  0.503925 -0.810139 0.000000
vt  0.751705 -0.610535 0.000000
vt  0.503925 -0.610535 0.000000
vt  0.720241 -0.380221 0.000000
vt  0.503925 -0.380221 0.000000
vt  0.649447 -0.157586 0.000000
vt  0.354471 -0.157586 0.000000
vt  0.283677 -0.380221 0.000000
vt  0.126356 -0.380221 0.000000
vt  0.067361 -0.610535 0.000000
vt  0.000500 -0.610535 0.000000
vt  0.043763 -0.810139 0.000000
vt  0.102758 -0.810139 0.000000
vt  0.244347 -0.952166 0.000000
vt  0.354471 -0.952166 0.000000
vt  0.271878 -0.810139 0.000000
vt  0.252213 -0.610535 0.000000
vt  0.067361 -0.610535 0.000000
vt  0.126356 -0.380221 0.000000
vt  0.067361 -0.380221 0.000000
vt  0.205017 -0.157586 0.000000
vt  0.244347 -0.157586 0.000000
vt  0.374136 -0.046268 0.000000
vt  0.429198 -0.046268 0.000000
vt  0.574720 -0.046268 0.000000
vt  0.503925 -0.007882 0.000000
vt  0.503925 -0.046268 0.000000
vt  0.649447 -0.157586 0.000000
vt  0.503925 -0.157586 0.000000
vt  0.720241 -0.380221 0.000000
vt  0.503925 -0.380221 0.000000
vt  0.751705 -0.610535 0.000000
vt  0.354471 -0.157586 0.000000
vt  0.503925 -0.380221 0.000000
vt  0.503925 -0.157586 0.000000
vt  0.429198 -0.046268 0.000000
vt  0.503925 -0.046268 0.000000
vt  0.503925 -0.007882 0.000000
vt  0.252213 -0.610535 0.000000
vt  0.271878 -0.810139 0.000000
vt  0.102758 -0.810139 0.000000
vt  0.244347 -0.952166 0.000000
vt  0.205017 -0.952166 0.000000
vt  0.503925 -0.986713 0.000000
vt  0.503925 -0.986713 0.000000
vt  0.244347 -0.952166 0.000000
vt  0.354471 -0.952166 0.000000
vt  0.271878 -0.810139 0.000000
vt  0.649447 -0.952166 0.000000
vt  0.503925 -0.952166 0.000000
vt  0.503925 -0.810139 0.000000
vt  0.503925 -0.007882 0.000000
vt  0.374136 -0.046268 0.000000
vt  0.429198 -0.046268 0.000000
vt  0.354471 -0.157586 0.000000

vn  -0.004149 0.351490 -0.936182
vn  -0.047475 0.590128 -0.805912
vn  0.356162 0.635969 -0.684611
vn  -0.000014 0.821463 -0.570262
vn  0.256983 0.857803 -0.445123
vn  -0.000014 1.000000 0.000014
vn  0.456004 0.835891 -0.305527
vn  0.547684 0.835885 -0.036582
vn  0.676644 0.617594 -0.400912
vn  0.786441 0.617602 -0.008883
vn  0.808678 0.351498 -0.471687
vn  0.936182 0.351490 -0.004128
vn  0.865665 0.020821 -0.500190
vn  0.999783 0.020824 -0.000331
vn  0.777479 -0.453602 -0.435627
vn  0.891131 -0.453601 0.011474
vn  0.469999 -0.853673 -0.224374
vn  0.519217 -0.853673 0.040690
vn  -0.000002 -1.000000 0.000002
vn  0.429320 -0.853669 0.294846
vn  0.224399 -0.853662 0.470006
vn  0.435627 -0.453602 0.777479
vn  -0.011459 -0.453583 0.891140
vn  0.000331 0.020824 0.999783
vn  -0.499585 0.020838 0.866014
vn  -0.464522 0.351481 0.812823
vn  -0.808667 0.351489 0.471712
vn  -0.676619 0.617596 0.400952
vn  -0.786433 0.617611 0.008910
vn  -0.547673 0.835891 0.036628
vn  -0.492598 0.835889 -0.242152
vn  -0.305542 0.835886 -0.456002
vn  -0.400926 0.617593 -0.676637
vn  -0.471697 0.351497 -0.808673
vn  -0.500198 0.020821 -0.865661
vn  -0.000350 0.020824 -0.999783
vn  -0.435635 -0.453601 -0.777475
vn  0.011455 -0.453601 -0.891131
vn  -0.224383 -0.853671 -0.469998
vn  0.040675 -0.853673 -0.519219
vn  0.294840 -0.853670 -0.429322
vn  -0.471697 0.351497 -0.808673
vn  -0.500198 0.020821 -0.865661
vn  -0.866019 0.020838 -0.499577
vn  -0.766002 -0.453604 -0.455504
vn  -0.891140 -0.453583 -0.011440
vn  -0.519231 -0.853666 -0.040674
vn  -0.470005 -0.853661 0.224408
vn  -0.000002 -1.000000 0.000002
vn  -0.294866 -0.853666 0.429312
vn  -0.040689 -0.853666 0.519229
vn  -0.455512 -0.453603 0.765998
vn  -0.011459 -0.453583 0.891140
vn  -0.499585 0.020838 0.866014
vn  0.429320 -0.853669 0.294846
vn  0.519217 -0.853673 0.040690
vn  0.766001 -0.453611 0.455499
vn  0.891131 -0.453601 0.011474
vn  0.866014 0.020838 0.499585
vn  0.999783 0.020824 -0.000331
vn  0.812823 0.351481 0.464522
vn  0.936182 0.351490 -0.004128
vn  0.685516 0.617601 0.385534
vn  0.786441 0.617602 -0.008883
vn  0.492605 0.835883 0.242155
vn  0.547684 0.835885 -0.036582
vn  -0.000014 1.000000 0.000014
vn  -0.000014 1.000000 0.000014
vn  -0.547673 0.835891 0.036628
vn  -0.456012 0.835879 0.305547
vn  -0.676619 0.617596 0.400952
vn  -0.385563 0.617591 0.685509
vn  -0.464522 0.351481 0.812823
vn  0.004111 0.351472 0.936189
vn  0.000331 0.020824 0.999783
vn  0.500190 0.020821 0.865665
vn  0.435627 -0.453602 0.777479
vn  0.766001 -0.453611 0.455499
vn  0.429320 -0.853669 0.294846
vn  0.256983 0.857803 -0.445123
vn  0.456004 0.835891 -0.305527
vn  0.356162 0.635969 -0.684611
vn  0.676644 0.617594 -0.400912
vn  0.464513 0.351481 -0.812827
vn  0.808678 0.351498 -0.471687
vn  0.499577 0.020838 -0.866019
vn  0.865665 0.020821 -0.500190
vn  0.455491 -0.453612 -0.766006
vn  0.777479 -0.453602 -0.435627
vn  0.294840 -0.853670 -0.429322
vn  0.492605 0.835883 0.242155
vn  -0.000014 1.000000 0.000014
vn  0.305532 0.835884 0.456014
vn  0.685516 0.617601 0.385534
vn  0.400938 0.617597 0.676626
vn  0.812823 0.351481 0.464522
vn  0.471703 0.351490 0.808673
vn  0.866014 0.020838 0.499585
vn  0.500190 0.020821 0.865665
vn  0.766001 -0.453611 0.455499
vn  -0.294866 -0.853666 0.429312
vn  -0.455512 -0.453603 0.765998
vn  -0.777475 -0.453601 0.435635
vn  -0.865661 0.020821 0.500198
vn  -0.999783 0.020824 0.000350
vn  -0.936189 0.351472 0.004132
vn  -0.812827 0.351481 -0.464513
vn  -0.685514 0.617592 -0.385553
vn  -0.400926 0.617593 -0.676637
vn  -0.305542 0.835886 -0.456002
vn  0.294840 -0.853670 -0.429322
vn  0.040675 -0.853673 -0.519219
vn  0.455491 -0.453612 -0.766006
vn  0.011455 -0.453601 -0.891131
vn  0.499577 0.020838 -0.866019
vn  -0.000350 0.020824 -0.999783
vn  0.464513 0.351481 -0.812827
vn  -0.004149 0.351490 -0.936182
vn  0.356162 0.635969 -0.684611
vn  -0.400926 0.617593 -0.676637
vn  -0.471697 0.351497 -0.808673
vn  -0.812827 0.351481 -0.464513
vn  -0.866019 0.020838 -0.499577
vn  -0.999783 0.020824 0.000350
vn  -0.891140 -0.453583 -0.011440
vn  -0.777475 -0.453601 0.435635
vn  -0.470005 -0.853661 0.224408
vn  -0.294866 -0.853666 0.429312
vn  -0.455512 -0.453603 0.765998
vn  -0.499585 0.020838 0.866014
vn  -0.865661 0.020821 0.500198
vn  -0.808667 0.351489 0.471712
vn  -0.936189 0.351472 0.004132
vn  -0.786433 0.617611 0.008910
vn  -0.685514 0.617592 -0.385553
vn  -0.492598 0.835889 -0.242152
vn  -0.305542 0.835886 -0.456002
vn  0.305532 0.835884 0.456014
vn  -0.000014 1.000000 0.000014
vn  0.036598 0.835890 0.547676
vn  0.400938 0.617597 0.676626
vn  0.008883 0.617611 0.786433
vn  0.471703 0.351490 0.808673
vn  0.004111 0.351472 0.936189
vn  0.500190 0.020821 0.865665
vn  -0.385563 0.617591 0.685509
vn  0.004111 0.351472 0.936189
vn  0.008883 0.617611 0.786433
vn  -0.242172 0.835883 0.492598
vn  0.036598 0.835890 0.547676
vn  -0.000014 1.000000 0.000014
vn  -0.500198 0.020821 -0.865661
vn  -0.435635 -0.453601 -0.777475
vn  -0.766002 -0.453604 -0.455504
vn  -0.429313 -0.853667 -0.294860
vn  -0.519231 -0.853666 -0.040674
vn  -0.000002 -1.000000 0.000002
vn  -0.000002 -1.000000 0.000002
vn  -0.429313 -0.853667 -0.294860
vn  -0.224383 -0.853671 -0.469998
vn  -0.435635 -0.453601 -0.777475
vn  0.224399 -0.853662 0.470006
vn  -0.040689 -0.853666 0.519229
vn  -0.011459 -0.453583 0.891140
vn  -0.000014 1.000000 0.000014
vn  -0.456012 0.835879 0.305547
vn  -0.242172 0.835883 0.492598
vn  -0.385563 0.617591 0.685509

g rdmobj00
usemtl D:\Users\Dazz\Downloads\USRDIR\FUCK\ID02687_00000000_files\diss_00.png
f  1/1/1 2/2/2 3/3/3
f  4/4/4 3/3/3 2/2/2
f  3/3/3 4/4/4 5/5/5
f  6/6/6 5/5/5 4/4/4
f  5/5/5 6/6/6 7/7/7
f  8/8/8 7/7/7 6/6/6
f  7/7/7 8/8/8 9/9/9
f  10/10/10 9/9/9 8/8/8
f  9/9/9 10/10/10 11/11/11
f  12/12/12 11/11/11 10/10/10
f  11/11/11 12/12/12 13/13/13
f  14/14/14 13/13/13 12/12/12
f  13/13/13 14/14/14 15/15/15
f  16/16/16 15/15/15 14/14/14
f  15/15/15 16/16/16 17/17/17
f  18/18/18 17/17/17 16/16/16
f  17/17/17 18/18/18 19/19/19
f  20/20/20 19/19/19 18/18/18
f  19/19/19 20/20/20 21/21/21
f  22/22/22 21/21/21 20/20/20
f  21/21/21 22/22/22 23/23/23
f  24/24/24 23/23/23 22/22/22
f  23/23/23 24/24/24 25/25/25
f  26/26/26 25/25/25 24/24/24
f  25/25/25 26/26/26 27/27/27
f  28/28/28 27/27/27 26/26/26
f  27/27/27 28/28/28 29/29/29
f  30/30/30 29/29/29 28/28/28
f  29/29/29 30/30/30 31/31/31
f  6/6/6 31/31/31 30/30/30
f  31/31/31 6/6/6 32/32/32
f  4/4/4 32/32/32 6/6/6
f  32/32/32 4/4/4 33/33/33
f  2/2/2 33/33/33 4/4/4
f  33/33/33 2/2/2 34/34/34
f  1/1/1 34/34/34 2/2/2
f  34/34/34 1/1/1 35/35/35
f  36/36/36 35/35/35 1/1/1
f  35/35/35 36/36/36 37/37/37
f  38/38/38 37/37/37 36/36/36
f  37/37/37 38/38/38 39/39/39
f  40/40/40 39/39/39 38/38/38
f  39/39/39 40/40/40 19/19/19
f  41/41/41 19/19/19 40/40/40
f  19/19/19 41/41/41 17/17/17
f  15/15/15 17/17/17 41/41/41
f  42/42/42 43/43/43 44/44/44
f  45/45/45 44/44/44 43/43/43
f  44/44/44 45/45/45 46/46/46
f  47/47/47 46/46/46 45/45/45
f  46/46/46 47/47/47 48/48/48
f  49/49/49 48/48/48 47/47/47
f  48/48/48 49/49/49 50/50/50
f  51/51/51 50/50/50 49/49/49
f  50/50/50 51/51/51 52/52/52
f  53/53/53 52/52/52 51/51/51
f  52/52/52 53/53/53 54/54/54
f  55/55/55 56/56/56 57/57/57
f  58/58/58 57/57/57 56/56/56
f  57/57/57 58/58/58 59/59/59
f  60/60/60 59/59/59 58/58/58
f  59/59/59 60/60/60 61/61/61
f  62/62/62 61/61/61 60/60/60
f  61/61/61 62/62/62 63/63/63
f  64/64/64 63/63/63 62/62/62
f  63/63/63 64/64/64 65/65/65
f  66/66/66 65/65/65 64/64/64
f  65/65/65 66/66/66 67/67/67
f  68/68/68 69/69/69 70/70/70
f  71/71/71 70/70/70 69/69/69
f  70/70/70 71/71/71 72/72/72
f  73/73/73 72/72/72 71/71/71
f  72/72/72 73/73/73 74/74/74
f  75/75/75 74/74/74 73/73/73
f  74/74/74 75/75/75 76/76/76
f  77/77/77 76/76/76 75/75/75
f  76/76/76 77/77/77 78/78/78
f  79/79/79 78/78/78 77/77/77
f  80/80/80 81/81/81 82/82/82
f  83/83/83 82/82/82 81/81/81
f  82/82/82 83/83/83 84/84/84
f  85/85/85 84/84/84 83/83/83
f  84/84/84 85/85/85 86/86/86
f  87/87/87 86/86/86 85/85/85
f  86/86/86 87/87/87 88/88/88
f  89/89/89 88/88/88 87/87/87
f  88/88/88 89/89/89 90/90/90
f  91/91/91 92/92/92 91/91/91
f  93/93/93 91/91/91 92/92/92
f  91/91/91 93/93/93 94/94/94
f  95/95/95 94/94/94 93/93/93
f  94/94/94 95/95/95 96/96/96
f  97/97/97 96/96/96 95/95/95
f  96/96/96 97/97/97 98/98/98
f  99/99/99 98/98/98 97/97/97
f  98/98/98 99/99/99 100/100/100
f  101/101/101 102/102/102 103/103/103
f  104/104/104 103/103/103 102/102/102
f  103/103/103 104/104/104 105/105/105
f  106/106/106 105/105/105 104/104/104
f  105/105/105 106/106/106 107/107/107
f  108/108/108 107/107/107 106/106/106
f  107/107/107 108/108/108 109/109/109
f  110/110/110 109/109/109 108/108/108
f  111/111/111 112/112/112 113/113/113
f  114/114/114 113/113/113 112/112/112
f  113/113/113 114/114/114 115/115/115
f  116/116/116 115/115/115 114/114/114
f  115/115/115 116/116/116 117/117/117
f  118/118/118 117/117/117 116/116/116
f  117/117/117 118/118/118 119/119/119
f  120/120/120 121/121/121 122/122/122
f  123/123/123 122/122/122 121/121/121
f  122/122/122 123/123/123 124/124/124
f  125/125/125 124/124/124 123/123/123
f  124/124/124 125/125/125 126/126/126
f  127/127/127 126/126/126 125/125/125
f  126/126/126 127/127/127 128/128/128
f  129/129/129 130/130/130 131/131/131
f  132/132/132 131/131/131 130/130/130
f  131/131/131 132/132/132 133/133/133
f  134/134/134 133/133/133 132/132/132
f  133/133/133 134/134/134 135/135/135
f  136/136/136 135/135/135 134/134/134
f  135/135/135 136/136/136 137/137/137
f  138/138/138 139/139/139 138/138/138
f  140/140/140 138/138/138 139/139/139
f  138/138/138 140/140/140 141/141/141
f  142/142/142 141/141/141 140/140/140
f  141/141/141 142/142/142 143/143/143
f  144/144/144 143/143/143 142/142/142
f  143/143/143 144/144/144 145/145/145
f  146/146/146 147/147/147 146/146/146
f  148/148/148 146/146/146 147/147/147
f  146/146/146 148/148/148 149/149/149
f  150/150/150 149/149/149 148/148/148
f  149/149/149 150/150/150 151/151/151
f  152/152/152 153/153/153 154/154/154
f  155/155/155 154/154/154 153/153/153
f  154/154/154 155/155/155 156/156/156
f  157/157/157 156/156/156 155/155/155
f  158/158/158 159/159/159 160/160/160
f  161/161/161 160/160/160 159/159/159
f  158/158/158 162/162/162 163/163/163
f  164/164/164 163/163/163 162/162/162
f  165/165/165 166/166/166 167/167/167
f  168/168/168 167/167/167 166/166/166

g
